<svg xmlns="http://www.w3.org/2000/svg" width="185.69138130381242" height="267.1625" viewBox="0 0 200 287.748950031118" class="css-1j8o68f">
  <defs id="SvgjsDefs3332">
    <linearGradient id="SvgjsLinearGradient3339">
      <stop id="SvgjsStop3340" stop-color="#00ff8f" offset="0"></stop>
      <stop id="SvgjsStop3341" stop-color="#00a1ff" offset="1"></stop>
    </linearGradient>
  </defs>
  <g id="SvgjsG3333" featurekey="symbolFeature-0" transform="matrix(1.0588307523065164,0,0,1.0588307523065164,52.814960429202145,26.35337802498581)" fill="#8dc6ff">
    <path d="M65.532,53.661c2.473-2.341,2.081-5.645-0.869-7.341L59.1,43.118c-2.95-1.697-4.723-5.797-3.941-9.109l6.699-28.398  c0.781-3.312-0.602-4.108-3.073-1.767L24.467,36.339c-2.472,2.341-2.08,5.644,0.87,7.342l5.562,3.2  c2.949,1.698,4.724,5.798,3.943,9.109l-6.701,28.398c-0.78,3.312,0.602,4.107,3.074,1.767L65.532,53.661z"></path>
  </g>
  <g id="SvgjsG3334" featurekey="nameFeature-0" transform="matrix(5.544774097369857,0,0,5.544774097369857,-8.085931476741557,-16.057663163180408)" fill="url(#SvgjsLinearGradient3339)">
    <path d="M31.717 17.324 l5.8113 0 l-18.034 24.047 l-18.036 -24.047 l5.8116 0 l12.224 16.298 z"></path>
  </g>
  <g id="SvgjsG3335" featurekey="sloganFeature-0" transform="matrix(2.012930195450282,0,0,2.012930195450282,-3.359305321621239,215.94844392672812)" fill="#8dc6ff"><path d="M13.944 8.475 c1.4873 0 3.7 0.91594 3.7 3.4388 s-2.0564 3.4388 -3.4388 3.4388 l-10.172 0 l-0.016738 4.5342 l-2.3476 -0.0087696 l0.037794 -10.227 l0 -1.1757 l0.0043164 0 l0 -0.0043164 l1.1738 0.0043164 l11.059 0 z M14.856 12.823599999999999 c0.21816 -0.12072 0.4413 -0.32304 0.44118 -0.90952 c0 -0.47164 -0.15957 -0.72696 -0.56948 -0.91072 c-0.3725 -0.16701 -0.77926 -0.18049 -0.78304 -0.18049 l-9.8895 0 l0 2.1822 l10.141 0 c0.1024 -0.0035352 0.40818 -0.04211 0.66022 -0.18152 z M35.925 9.649 c0.91776 0.9099 0.9102 2.226 0.89856 4.2182 c-0.00091796 0.14832 -0.0016992 0.302 -0.0023438 0.46118 c-0.0044532 1.1823 -0.0075976 2.0366 -0.13172 2.757 c-0.10568 0.6142 -0.34974 1.4995 -1.2436 2.0954 c-1.1321 0.75466 -2.8232 0.77168 -6.5282 0.8087 c-0.57862 0.0057618 -1.1122 0.010078 -1.6046 0.010078 c-2.9354 0 -4.411 -0.15537 -5.3538 -1.0922 c-0.98198 -0.9757 -0.97648 -2.4126 -0.96838 -4.5876 c0.0090234 -2.4268 0.014512 -3.8916 1.2447 -4.801 c1.0614 -0.7845 2.6028 -0.80516 5.9798 -0.85054 l0.67396 -0.0092774 c4.2088 -0.060156 5.9508 -0.085136 7.0354 0.99024 z M34.491 13.854199999999999 c0.006543 -1.1448 0.013457 -2.3288 -0.20864 -2.5488 c-0.27556 -0.27322 -1.5123 -0.33638 -3.1584 -0.33638 c-0.67736 0 -1.4242 0.010723 -2.2018 0.021836 l-0.67606 0.0092774 c-2.4194 0.032442 -4.1674 0.055976 -4.625 0.39406 c-0.2888 0.21346 -0.2935 1.4744 -0.29898 2.9346 c-0.0050976 1.3559 -0.0099414 2.6366 0.28016 2.9248 c0.4554 0.45254 2.9138 0.42782 5.2914 0.40428 c2.7302 -0.027206 4.7028 -0.046954 5.258 -0.4171 c0.32686 -0.2179 0.33104 -1.3516 0.33692 -2.9208 c0.00052734 -0.16074 0.0014453 -0.316 0.0023632 -0.46588 z M60.6 8.743 l2.9056 0 l-9.017 12.023 l-3.5212 -4.6944 l-3.5206 4.6944 l-9.0178 -12.023 l2.9058 0 l6.1122 8.1492 l2.0678 -2.7574 l-4.044 -5.3918 l2.9058 0 l2.5912 3.4548 l2.5908 -3.4548 l2.9055 0 l-4.0436 5.3918 l2.0682 2.7574 z M81.867 10.9512 l-13.59 0.000019531 l0 2.1863 l9.0642 0.03375 l-0.0086328 2.3478 l-9.0556 -0.03375 l0 2.1782 l13.59 0 l0 2.3477 l-15.938 0 l0 -11.407 l15.938 0 l0 2.3476 z M99.537 17.557 l1.162 -0.017422 l0.034786 2.3242 l-1.1621 0.017402 c-0.18088 0.002754 -0.38542 0.0058984 -0.6087 0.0058984 c-1.614 0 -4.2026 -0.16008 -5.8378 -1.7712 c-0.72798 -0.71726 -1.1865 -1.629 -1.3698 -2.72 l-4.2054 0 l-0.016602 4.4896 l-2.3246 -0.0086328 l0.037402 -10.127 l0 -1.1635 l0.0043164 0 l0 -0.0043164 l1.1612 0.0043164 l10.951 0 c1.4728 0 3.6638 0.90678 3.6638 3.4048 c0 2.4982 -2.0362 3.405 -3.4048 3.405 l-3.4826 0 c0.12543 0.4252 0.32842 0.77924 0.61734 1.064 c1.1685 1.151 3.608 1.1146 4.7804 1.0969 z M87.57140000000001 13.0714 l10.041 -0.000019531 c0.10148 -0.0035352 0.40426 -0.041718 0.6538 -0.17971 c0.21608 -0.11955 0.43686 -0.32006 0.43686 -0.90076 c0 -0.46692 -0.15799 -0.71972 -0.56382 -0.90166 c-0.36882 -0.16531 -0.77152 -0.17865 -0.77532 -0.17865 l-9.7922 0 l0 2.1608 z"></path>
  </g>
</svg>